<?xml version="1.0"?>
<svg width="32" height="16" xmlns="http://www.w3.org/2000/svg" xmlns:svg="http://www.w3.org/2000/svg">
 <!-- Created with SVG-edit - http://svg-edit.googlecode.com/ -->
 <title>icon</title>
 <g>
  <title>Layer 1</title>
  <path fill="#ff0f0f" stroke-width="5" stroke-dasharray="null" stroke-linejoin="null" stroke-linecap="null" d="m16,0.9c-6.94492,0 -12.42465,7.09954 -12.42465,7.09954s5.47973,7.10046 12.42465,7.10046c5.31131,0 12.42465,-7.10046 12.42465,-7.10046s-7.11334,-7.09954 -12.42465,-7.09954zm0,11.52364c-2.43799,0 -4.4241,-1.98519 -4.4241,-4.4241s1.98611,-4.4241 4.4241,-4.4241s4.4241,1.98611 4.4241,4.4241s-1.98611,4.4241 -4.4241,4.4241zm0,-7.00659c-1.42561,0 -2.58249,1.15595 -2.58249,2.58249c0,1.42653 1.15596,2.58249 2.58249,2.58249c1.42653,0 2.58249,-1.15596 2.58249,-2.58249c0,-1.42562 -1.15596,-2.58249 -2.58249,-2.58249z" id="svg_13"/>
 </g>
</svg>