<?xml version="1.0"?>
<svg width="32" height="32" xmlns="http://www.w3.org/2000/svg" xmlns:svg="http://www.w3.org/2000/svg">
 <!-- Created with SVG-edit - http://svg-edit.googlecode.com/ -->
 <title>icon</title>
 <g>
  <title>Layer 1</title>
  <path id="svg_13" d="m16,8.9c-6.944922,0 -12.424654,7.09954 -12.424654,7.09954s5.479733,7.10046 12.424654,7.10046c5.31131,0 12.424654,-7.10046 12.424654,-7.10046s-7.113345,-7.09954 -12.424654,-7.09954zm0,11.523637c-2.437993,0 -4.424097,-1.985184 -4.424097,-4.424097s1.986104,-4.424097 4.424097,-4.424097s4.424097,1.986104 4.424097,4.424097s-1.986104,4.424097 -4.424097,4.424097zm0,-7.006585c-1.425614,0 -2.582487,1.155953 -2.582487,2.582487c0,1.426534 1.155953,2.582487 2.582487,2.582487c1.426534,0 2.582487,-1.155953 2.582487,-2.582487c0,-1.425614 -1.155953,-2.582487 -2.582487,-2.582487z" stroke-linecap="null" stroke-linejoin="null" stroke-dasharray="null" stroke-width="5" fill="#ff0f0f"/>
 </g>
</svg>